{"asset":{"copyright":"","generator":"Aspose GLTF","version":"2.0"},"extensionsUsed":["KHR_materials_unlit"],"accessors":[{"name":"POSITION","bufferView":0,"componentType":5126,"count":79135,"max":[722.7071533203125,-155.8848419189453,378.85321044921875],"min":[3.4438178539276123,-953.2982788085938,-8.711106300354004],"type":"VEC3"},{"bufferView":1,"componentType":5125,"count":248420,"type":"SCALAR"}],"bufferViews":[{"buffer":0,"byteLength":949620,"byteOffset":993680,"byteStride":12,"target":34962},{"buffer":0,"byteLength":993680,"target":34963}],"buffers":[{"byteLength":1943300,"uri":"model.bin"}],"materials":[{"extensions":{"KHR_materials_unlit":{}},"name":"material1","pbrMetallicRoughness":{}}],"meshes":[{"name":"mesh","primitives":[{"attributes":{"POSITION":0},"indices":1,"material":0,"mode":1}]}],"nodes":[{"mesh":0}],"scenes":[{"name":"Default","nodes":[0]}]}